<svg xmlns="http://www.w3.org/2000/svg" fill-rule="evenodd" viewBox="0 0 100 100">
    <path d="M72.17 7H27.83A4.71 4.71 0 0 0 23 11.57v77.86A4.71 4.71 0 0 0 27.83 94h44.34A4.71 4.71 0 0 0 77 89.43V11.57A4.71 4.71 0 0 0 72.17 7ZM26 20h48v56H26Zm1.83-10h44.34A1.72 1.72 0 0 1 74 11.57V17H26v-5.43A1.72 1.72 0 0 1 27.83 10Zm44.34 81H27.83A1.72 1.72 0 0 1 26 89.43V79h48v10.43A1.72 1.72 0 0 1 72.17 91Z"/>
    <path d="M50.5 83a2.5 2.5 0 1 0 0 5 2.5 2.5 0 1 0 0-5zm3.17-41.34a1.5 1.5 0 0 0-2 .67l-6 12a1.5 1.5 0 0 0 2.68 1.34l6-12a1.5 1.5 0 0 0-.68-2.01Zm14.89 6.28-7-7a1.5 1.5 0 0 0-2.12 2.12L65.38 49l-5.94 5.94a1.5 1.5 0 1 0 2.12 2.12l7-7a1.5 1.5 0 0 0 0-2.12Zm-28.08-6.7a1.5 1.5 0 0 0-2.12 0l-7 7a1.5 1.5 0 0 0 0 2.12l7 7a1.5 1.5 0 0 0 2.12-2.12l-6-6 6-6a1.5 1.5 0 0 0 0-2Z"/>
</svg>
